<?xml version="1.0" encoding="utf-8"?>
<!-- Created by sK1 2.0rc5 (https://sk1project.net/) -->
<svg xmlns="http://www.w3.org/2000/svg" height="22.9606299213pt" viewBox="0 0 75.1181102362 22.9606299213" width="75.1181102362pt" version="1.1" xmlns:xlink="http://www.w3.org/1999/xlink" id="a40f528f-7278-11ee-9681-309c23a67cc8">
<defs id="defs1">
	<radialGradient spreadMethod="pad" gradientUnits="userSpaceOnUse" cy="0.0" cx="0.0" gradientTransform="matrix(1.0, 0.0, 0.0, -1.0, 37.5590551181, 11.48031496065)" r="7.1015625" id="gradblack">
		<stop style="stop-color:#2d2c2b;stop-opacity:0.0;" offset="0.0" />
		<stop style="stop-color:#000000;stop-opacity:1.0;" offset="1.0" />
	</radialGradient>
</defs>
<g>
	<path style="stroke-linejoin:round;stroke:#000000;stroke-linecap:round;stroke-miterlimit:4.0;stroke-width:0.4637;fill:#2c414e;" d="M 75.16,0.4822 C 75.16,0.2176 74.9487,0.003 74.6881,0.003 L 0.5144,0.003 C 0.2538,0.003 0.0425,0.2176 0.0425,0.4822 L 0.0425,22.4785 C 0.0425,22.7431 0.2538,22.9578 0.5144,22.9578 L 74.6881,22.9578 C 74.9487,22.9578 75.16,22.7431 75.16,22.4785 L 75.16,0.4822 Z" />
	<path style="stroke:#000000;stroke-width:0.0;stroke-miterlimit:4.0;fill:none;" d="M 72.7993,2.2594 L 74.8635,0.2546 M 72.7993,20.7013 L 74.8635,22.706 M 2.2951,20.7013 L 0.2546,22.706 M 2.2951,2.2594 L 0.2546,0.2546 M 72.7993,2.2594 L 72.7993,20.7013 2.2951,20.7013 2.2951,2.2594 72.7993,2.2594 Z" />
	<path style="stroke-linejoin:round;fill-rule:evenodd;stroke:#000000;stroke-linecap:round;stroke-miterlimit:4.0;stroke-width:0.1474;fill:url(#gradblack);" d="M 30.456,11.5304 L 33.3381,10.8359 35.1264,9.0476 36.9147,7.2594 37.6092,4.3773 38.2703,7.2426 40.0335,9.0058 41.7968,10.7691 44.6621,11.4302 41.7883,12.133 40.0,13.9213 38.2117,15.7096 37.5089,18.5834 36.8561,15.7097 35.0929,13.9465 33.3296,12.1833 30.456,11.5304 Z" />
	<g>
		<g>
			<path style="stroke:#000000;stroke-width:0.0;stroke-miterlimit:4.0;fill:none;" d="M 73.0377,2.0359 L 75.1158,-0.0174 M 73.0377,20.9254 L 75.1158,22.9787 M 2.0565,20.9254 L 0.0022,22.9787 M 2.0565,2.0359 L 0.0022,-0.0174 M 73.0377,2.0359 L 73.0377,20.9254 2.0565,20.9254 2.0565,2.0359 73.0377,2.0359 Z" />
			<path style="fill-opacity:0.5;fill:#000000;" d="M 32.9234,0.2227 L 37.5585,-1.8529 42.1947,0.2227 32.9234,0.2227 Z" />
			<path style="fill-opacity:0.5;fill:#000000;" d="M 32.9234,22.7065 L 37.5585,24.7821 42.1947,22.7065 32.9234,22.7065 Z" />
			<path style="fill-opacity:0.5;fill:#010000;" d="M 14.381,-0.0174 L 9.7454,-0.0174 5.1109,-1.8529 0.4742,-0.0174 0.0022,-0.0174 0.0022,22.9787 0.68,22.9682 5.1109,24.7821 9.7454,22.9788 14.381,22.9788 C 14.381,22.9788 9.7092,15.6279 9.7092,11.4807 9.7092,7.3334 14.381,-0.0174 14.381,-0.0174" />
			<path style="stroke:#000000;stroke-width:0.0;stroke-miterlimit:4.0;fill:none;" d="M 73.0377,2.0359 L 75.1158,-0.0174" />
			<path style="stroke:#000000;stroke-width:0.0;stroke-miterlimit:4.0;fill:none;" d="M 73.0377,20.9254 L 75.1158,22.9787" />
			<path style="stroke:#000000;stroke-width:0.0;stroke-miterlimit:4.0;fill:none;" d="M 2.0565,20.9254 L 0.0022,22.9787" />
			<path style="stroke:#000000;stroke-width:0.0;stroke-miterlimit:4.0;fill:none;" d="M 2.0565,2.0359 L 0.0022,-0.0174" />
			<path style="stroke:#000000;stroke-width:0.0;stroke-miterlimit:4.0;fill:none;" d="M 73.0377,2.0359 L 73.0377,20.9254 2.0565,20.9254 2.0565,2.0359 73.0377,2.0359 Z" />
			<path style="stroke:#000000;stroke-width:0.4833;stroke-miterlimit:4.0;fill:none;" d="M 75.1158,0.4627 L 75.1158,22.4986 C 75.1158,22.7646 74.9054,22.9787 74.6439,22.9787 L 70.009,24.7821 65.3727,22.9787 60.7371,22.9787 56.1015,22.9787 51.4659,22.9787 46.8303,22.9787 42.1947,22.9787 37.5585,24.7821 32.9234,22.9787 28.2878,22.9787 23.6522,22.9787 19.0166,22.9787 14.381,22.9787 9.7454,22.9787 5.111,24.7821 0.4742,22.9787 C 0.23,22.8838 0.0022,22.7646 0.0022,22.4986 L 0.0022,0.4627 C 0.0022,0.1967 0.2127,-0.0174 0.4742,-0.0174 L 5.111,-1.8529 9.7454,-0.0174 14.381,-0.0174 19.0166,-0.0174 23.6522,-0.0174 28.2878,-0.0174 32.9234,-0.0174 37.5585,-1.8529 42.1947,-0.0174 46.8303,-0.0174 51.4659,-0.0174 56.1015,-0.0174 60.7371,-0.0174 65.3727,-0.0174 70.009,-1.8529 74.6439,-0.0174 C 74.8876,0.0791 75.1158,0.1967 75.1158,0.4627 Z" />
			<path style="fill-opacity:0.5;fill:#010000;" d="M 60.7371,-0.0174 L 65.3727,-0.0174 70.0071,-1.8529 74.6439,-0.0174 75.1158,-0.0174 75.1158,22.9787 74.4381,22.9682 70.0071,24.7821 65.3727,22.9788 60.7371,22.9788 C 60.7371,22.9788 65.4089,15.6279 65.4089,11.4807 65.4089,7.3334 60.7371,-0.0174 60.7371,-0.0174" />
		</g>
		<path style="stroke:#000000;stroke-width:0.0;stroke-miterlimit:4.0;fill:none;" d="M 72.7993,2.2594 L 74.8635,0.2546 M 72.7993,20.7013 L 74.8635,22.706 M 2.2951,20.7013 L 0.2546,22.706 M 2.2951,2.2594 L 0.2546,0.2546 M 72.7993,2.2594 L 72.7993,20.7013 2.2951,20.7013 2.2951,2.2594 72.7993,2.2594 Z" />
	</g>
</g>
</svg>