<?xml version="1.0" encoding="utf-8"?>
<!-- Created by sK1 2.0rc5 (https://sk1project.net/) -->
<svg xmlns="http://www.w3.org/2000/svg" height="22.9606299213pt" viewBox="0 0 75.1181102362 22.9606299213" width="75.1181102362pt" version="1.1" xmlns:xlink="http://www.w3.org/1999/xlink" id="d7e07430-7277-11ee-ac37-309c23a67cc8">
<defs id="defs1">
	<radialGradient spreadMethod="pad" gradientUnits="userSpaceOnUse" cy="-0.041015625" cx="-0.001953125" gradientTransform="matrix(1.0, 0.0, 0.0, -1.0, 37.5590551181, 11.48031496065)" r="4.990234375" id="gradblue">
		<stop style="stop-color:#00a0e1;stop-opacity:1.0;" offset="0.0" />
		<stop style="stop-color:#ffffff;stop-opacity:1.0;" offset="1.0" />
	</radialGradient>
</defs>
<g>
	<path style="stroke-linejoin:round;stroke:#000000;stroke-linecap:round;stroke-miterlimit:4.0;stroke-width:0.5796;fill:#03abe6;" d="M 75.1173,0.5244 C 75.1173,0.2598 74.906,0.0452 74.6454,0.0452 L 0.4727,0.0452 C 0.2121,0.0452 0.0007,0.2598 0.0007,0.5244 L 0.0007,22.5206 C 0.0007,22.7853 0.2121,22.9999 0.4727,22.9999 L 74.6454,22.9999 C 74.906,22.9999 75.1173,22.7853 75.1173,22.5206 L 75.1173,0.5244 Z" />
	<path style="fill:none;" d="M 73.0396,2.0942 L 75.1179,0.0446 M 73.0396,20.9497 L 75.1179,22.9993 M 2.0562,20.9497 L 0.0018,22.9993 M 2.0562,2.0942 L 0.0018,0.0446 M 73.0407,2.0942 L 73.0407,20.9497 2.0566,20.9497 2.0566,2.0942 73.0407,2.0942 Z" />
	<path style="stroke-linejoin:round;fill-rule:evenodd;stroke:#000000;stroke-linecap:round;stroke-miterlimit:4.0;stroke-width:0.2566;fill:url(#gradblue);" d="M 32.5731,11.5221 C 32.5731,10.1239 33.1312,8.8581 34.0335,7.9419 34.9358,7.0257 36.1822,6.459 37.559,6.459 40.3127,6.459 42.5449,8.7258 42.5449,11.5221 42.5449,14.3184 40.3126,16.5853 37.559,16.5853 36.1822,16.5853 34.9357,16.0186 34.0335,15.1023 34.0335,15.1023 36.8544,15.1969 38.2265,14.9202 38.7395,14.8167 39.4773,14.6018 39.7009,14.3748 39.9244,14.1477 40.0627,13.8341 40.0627,13.4876 40.0627,12.7947 39.5096,12.233 38.8272,12.233 38.1449,12.233 37.5918,12.7947 37.5918,13.4876 37.5918,13.4876 34.9953,13.8331 33.9062,13.2504 33.2686,12.9094 32.8082,12.2138 32.5732,11.5221 L 32.5732,11.5221 32.5731,11.5221 Z" />
	<g>
		<g>
			<path style="stroke:#000000;stroke-width:0.0;stroke-miterlimit:4.0;fill:none;" d="M 73.0377,2.0359 L 75.1158,-0.0174 M 73.0377,20.9254 L 75.1158,22.9787 M 2.0565,20.9254 L 0.0022,22.9787 M 2.0565,2.0359 L 0.0022,-0.0174 M 73.0377,2.0359 L 73.0377,20.9254 2.0565,20.9254 2.0565,2.0359 73.0377,2.0359 Z" />
			<path style="fill-opacity:0.5;fill:#000000;" d="M 32.9234,0.2227 L 37.5585,-1.8529 42.1947,0.2227 32.9234,0.2227 Z" />
			<path style="fill-opacity:0.5;fill:#000000;" d="M 32.9234,22.7065 L 37.5585,24.7821 42.1947,22.7065 32.9234,22.7065 Z" />
			<path style="fill-opacity:0.5;fill:#010000;" d="M 14.381,-0.0174 L 9.7454,-0.0174 5.1109,-1.8529 0.4742,-0.0174 0.0022,-0.0174 0.0022,22.9787 0.68,22.9682 5.1109,24.7821 9.7454,22.9788 14.381,22.9788 C 14.381,22.9788 9.7092,15.6279 9.7092,11.4807 9.7092,7.3334 14.381,-0.0174 14.381,-0.0174" />
			<path style="stroke:#000000;stroke-width:0.0;stroke-miterlimit:4.0;fill:none;" d="M 73.0377,2.0359 L 75.1158,-0.0174" />
			<path style="stroke:#000000;stroke-width:0.0;stroke-miterlimit:4.0;fill:none;" d="M 73.0377,20.9254 L 75.1158,22.9787" />
			<path style="stroke:#000000;stroke-width:0.0;stroke-miterlimit:4.0;fill:none;" d="M 2.0565,20.9254 L 0.0022,22.9787" />
			<path style="stroke:#000000;stroke-width:0.0;stroke-miterlimit:4.0;fill:none;" d="M 2.0565,2.0359 L 0.0022,-0.0174" />
			<path style="stroke:#000000;stroke-width:0.0;stroke-miterlimit:4.0;fill:none;" d="M 73.0377,2.0359 L 73.0377,20.9254 2.0565,20.9254 2.0565,2.0359 73.0377,2.0359 Z" />
			<path style="stroke:#000000;stroke-width:0.4833;stroke-miterlimit:4.0;fill:none;" d="M 75.1158,0.4627 L 75.1158,22.4986 C 75.1158,22.7646 74.9054,22.9787 74.6439,22.9787 L 70.009,24.7821 65.3727,22.9787 60.7371,22.9787 56.1015,22.9787 51.4659,22.9787 46.8303,22.9787 42.1947,22.9787 37.5585,24.7821 32.9234,22.9787 28.2878,22.9787 23.6522,22.9787 19.0166,22.9787 14.381,22.9787 9.7454,22.9787 5.111,24.7821 0.4742,22.9787 C 0.23,22.8838 0.0022,22.7646 0.0022,22.4986 L 0.0022,0.4627 C 0.0022,0.1967 0.2127,-0.0174 0.4742,-0.0174 L 5.111,-1.8529 9.7454,-0.0174 14.381,-0.0174 19.0166,-0.0174 23.6522,-0.0174 28.2878,-0.0174 32.9234,-0.0174 37.5585,-1.8529 42.1947,-0.0174 46.8303,-0.0174 51.4659,-0.0174 56.1015,-0.0174 60.7371,-0.0174 65.3727,-0.0174 70.009,-1.8529 74.6439,-0.0174 C 74.8876,0.0791 75.1158,0.1967 75.1158,0.4627 Z" />
			<path style="fill-opacity:0.5;fill:#010000;" d="M 60.7371,-0.0174 L 65.3727,-0.0174 70.0071,-1.8529 74.6439,-0.0174 75.1158,-0.0174 75.1158,22.9787 74.4381,22.9682 70.0071,24.7821 65.3727,22.9788 60.7371,22.9788 C 60.7371,22.9788 65.4089,15.6279 65.4089,11.4807 65.4089,7.3334 60.7371,-0.0174 60.7371,-0.0174" />
		</g>
		<path style="stroke:#000000;stroke-width:0.0;stroke-miterlimit:4.0;fill:none;" d="M 72.7993,2.2594 L 74.8635,0.2546 M 72.7993,20.7013 L 74.8635,22.706 M 2.2951,20.7013 L 0.2546,22.706 M 2.2951,2.2594 L 0.2546,0.2546 M 72.7993,2.2594 L 72.7993,20.7013 2.2951,20.7013 2.2951,2.2594 72.7993,2.2594 Z" />
	</g>
</g>
</svg>