<?xml version="1.0" encoding="utf-8"?>
<!-- Created by sK1 2.0rc5 (https://sk1project.net/) -->
<svg xmlns="http://www.w3.org/2000/svg" height="22.9606299213pt" viewBox="0 0 75.1181102362 22.9606299213" width="75.1181102362pt" version="1.1" xmlns:xlink="http://www.w3.org/1999/xlink" id="a7256180-7278-11ee-b00c-309c23a67cc8">

<g>
	<g>
		<path style="stroke-linejoin:round;stroke:#000000;stroke-linecap:round;stroke-miterlimit:4.0;stroke-width:0.5796;fill:#8e9397;" d="M 75.1178,0.4822 C 75.1178,0.2176 74.9065,0.003 74.6459,0.003 L 0.4722,0.003 C 0.2116,0.003 0.0003,0.2176 0.0003,0.4822 L 0.0003,22.4785 C 0.0003,22.7431 0.2116,22.9578 0.4722,22.9578 L 74.6459,22.9578 C 74.9065,22.9578 75.1178,22.7431 75.1178,22.4785 L 75.1178,0.4822 Z" />
		<path style="stroke:#000000;stroke-width:0.0;stroke-miterlimit:4.0;fill:none;" d="M 73.0395,2.0526 L 75.1178,0.003 M 73.0395,20.9081 L 75.1178,22.9578 M 2.0546,20.9081 L 0.0003,22.9578 M 2.0546,2.0526 L 0.0003,0.003 M 73.0395,2.0526 L 73.0395,20.9081 2.0546,20.9081 2.0546,2.0526 73.0395,2.0526 Z" />
	</g>
</g>
</svg>