<?xml version="1.0" encoding="utf-8"?>
<!-- Created by sK1 2.0rc5 (https://sk1project.net/) -->
<svg xmlns="http://www.w3.org/2000/svg" height="22.9606299213pt" viewBox="0 0 75.1181102362 22.9606299213" width="75.1181102362pt" version="1.1" xmlns:xlink="http://www.w3.org/1999/xlink" id="8e99618f-7279-11ee-bf0e-309c23a67cc8">

<g>
	<g>
		<path style="stroke-linejoin:round;stroke:#000000;stroke-linecap:round;stroke-miterlimit:4.0;stroke-width:0.5796;fill:#8e9397;" d="M 75.1178,0.4822 C 75.1178,0.2176 74.9065,0.003 74.6459,0.003 L 0.4722,0.003 C 0.2116,0.003 0.0003,0.2176 0.0003,0.4822 L 0.0003,22.4785 C 0.0003,22.7431 0.2116,22.9578 0.4722,22.9578 L 74.6459,22.9578 C 74.9065,22.9578 75.1178,22.7431 75.1178,22.4785 L 75.1178,0.4822 Z" />
		<path style="stroke:#000000;stroke-width:0.0;stroke-miterlimit:4.0;fill:none;" d="M 73.0395,2.0526 L 75.1178,0.003 M 73.0395,20.9081 L 75.1178,22.9578 M 2.0546,20.9081 L 0.0003,22.9578 M 2.0546,2.0526 L 0.0003,0.003 M 73.0395,2.0526 L 73.0395,20.9081 2.0546,20.9081 2.0546,2.0526 73.0395,2.0526 Z" />
		<path style="fill:#000000;" d="M 36.1006,18.2831 C 36.575,18.8174 37.2627,19.1521 38.0312,19.1521 38.7997,19.1521 39.4875,18.8174 39.9618,18.2831 L 36.1006,18.2831 Z M 24.8286,17.3855 C 24.8575,18.3255 25.6068,19.0685 26.54,19.0685 27.4732,19.0685 28.2225,18.3255 28.2514,17.3855 L 24.8286,17.3855 Z M 29.6021,15.18 C 29.3767,15.571 29.2471,16.0269 29.2471,16.5152 29.2471,17.9775 30.4038,19.1521 31.8437,19.1521 32.6122,19.1521 33.3,18.8174 33.7743,18.283 L 32.0467,18.283 29.6021,15.18 Z M 42.1808,14.8775 C 41.8311,15.3266 41.6222,15.8948 41.6222,16.5153 41.6222,16.7792 41.6604,17.0334 41.7305,17.2732 L 44.0681,17.2732 42.1808,14.8775 Z M 35.9932,14.8775 C 35.6435,15.3266 35.4346,15.8948 35.4346,16.5153 35.4346,16.7792 35.4728,17.0334 35.5429,17.2732 L 37.8806,17.2732 35.9932,14.8775 Z M 28.8054,14.1688 L 25.847,16.3756 28.2559,16.3756 C 28.2842,15.6225 28.5397,14.9273 28.9539,14.3573 L 28.8054,14.1688 Z M 44.2188,13.8785 C 43.7514,13.8785 43.3142,14.0029 42.9364,14.22 L 45.3418,17.2732 C 45.4346,17.3998 45.4352,17.3816 45.4342,17.5089 L 45.4342,18.2831 42.2882,18.2831 C 42.7626,18.8174 43.4503,19.1521 44.2188,19.1521 45.6587,19.1521 46.8154,17.9776 46.8154,16.5153 46.8154,15.053 45.6587,13.8785 44.2188,13.8785 L 44.2188,13.8785 Z M 38.0312,13.8785 C 37.5638,13.8785 37.1266,14.0029 36.7488,14.22 L 39.1542,17.2732 40.5195,17.2732 C 40.5882,17.0467 40.6277,16.7865 40.6277,16.5168 40.6277,16.5163 40.6277,16.5157 40.6277,16.5152 40.6277,15.053 39.4711,13.8785 38.0312,13.8785 L 38.0312,13.8785 Z M 31.8436,13.8785 C 31.2514,13.8785 30.7072,14.0776 30.2716,14.4133 L 32.5245,17.2732 34.3319,17.2732 C 34.4006,17.0467 34.4402,16.7865 34.4402,16.5168 34.4402,16.5163 34.4402,16.5157 34.4402,16.5152 34.4402,15.053 33.2835,13.8785 31.8436,13.8785 L 31.8436,13.8785 Z M 47.8098,13.7949 L 47.8098,18.1709 50.7879,18.1709 C 50.5136,17.6555 50.2845,17.0514 50.0844,16.4004 49.8115,15.5122 49.6149,14.5833 49.5194,13.7949 L 47.8098,13.7949 Z M 24.8274,13.7949 L 24.8274,15.883 27.6267,13.7949 24.8274,13.7949 Z M 33.6668,8.409 L 33.6668,10.0921 47.3126,10.0921 47.3126,11.1019 33.6668,11.1019 33.6668,12.785 49.0805,12.785 C 51.0693,12.785 51.0693,8.409 49.0805,8.409 L 33.6668,8.409 Z M 41.125,5.9405 C 40.7245,5.9405 40.3197,5.9973 40.0668,6.083 39.9521,6.1218 39.8852,6.164 39.8543,6.187 L 39.8543,7.3991 42.3957,7.3991 42.3957,6.187 C 42.3647,6.1638 42.2979,6.1218 42.1832,6.0829 41.9303,5.9972 41.5255,5.9404 41.125,5.9404 L 41.125,5.9405 Z M 28.3631,4.8184 L 30.9044,4.8184 30.9044,7.5114 28.3631,7.5114 28.3631,4.8184 Z M 26.5952,4.8184 L 27.3687,4.8184 27.3687,7.5114 26.5952,7.5114 26.5952,4.8184 Z M 44.2188,3.8086 L 44.2188,4.8184 45.158,4.8184 45.158,7.3992 47.6993,7.3992 47.6993,4.8184 48.6385,4.8184 48.6385,3.8086 44.2188,3.8086 Z M 24.3301,3.8086 L 24.3301,4.8184 25.6008,4.8184 25.6008,7.5114 24.8274,7.5114 24.8274,12.785 32.6723,12.785 32.6723,7.5114 31.8989,7.5114 31.8989,4.8184 33.1695,4.8184 33.1695,3.8086 24.3301,3.8086 Z" />
	</g>
</g>
</svg>