<?xml version="1.0" encoding="utf-8"?>
<!-- Created by sK1 2.0rc5 (https://sk1project.net/) -->
<svg xmlns="http://www.w3.org/2000/svg" height="22.9606299213pt" viewBox="0 0 75.1181102362 22.9606299213" width="75.1181102362pt" version="1.1" xmlns:xlink="http://www.w3.org/1999/xlink" id="ddfc1ac0-7279-11ee-aa13-309c23a67cc8">
<defs id="defs1">
	<radialGradient spreadMethod="pad" gradientUnits="userSpaceOnUse" cy="0.0" cx="0.001953125" gradientTransform="matrix(1.0, 0.0, 0.0, -1.0, 37.5590551181, 11.48031496065)" r="5.091796875" id="gradorange">
		<stop style="stop-color:#ffffff;stop-opacity:1.0;" offset="0.0" />
		<stop style="stop-color:#eb8439;stop-opacity:1.0;" offset="1.0" />
	</radialGradient>
</defs>
<g>
	<path style="stroke-linejoin:round;stroke:#000000;stroke-linecap:round;stroke-miterlimit:4.0;stroke-width:0.5796;fill:#e28d3a;" d="M 75.1178,0.4822 C 75.1178,0.2176 74.9065,0.003 74.6459,0.003 L 0.4722,0.003 C 0.2116,0.003 0.0003,0.2176 0.0003,0.4822 L 0.0003,22.4785 C 0.0003,22.7431 0.2116,22.9578 0.4722,22.9578 L 74.6459,22.9578 C 74.9065,22.9578 75.1178,22.7431 75.1178,22.4785 L 75.1178,0.4822 Z" />
	<path style="stroke:#000000;stroke-width:0.0;stroke-miterlimit:4.0;fill:none;" d="M 73.0395,2.0526 L 75.1178,0.003 M 73.0395,20.9081 L 75.1178,22.9578 M 2.0546,20.9081 L 0.0003,22.9578 M 2.0546,2.0526 L 0.0003,0.003 M 73.0395,2.0526 L 73.0395,20.9081 2.0546,20.9081 2.0546,2.0526 73.0395,2.0526 Z" />
	<path style="stroke-linejoin:round;fill-rule:evenodd;stroke:#000000;stroke-linecap:round;stroke-miterlimit:4.0;stroke-width:0.1958;fill:url(#gradorange);" d="M 37.5585,6.3084 C 34.7465,6.3086 32.466,8.6243 32.4659,11.4799 32.466,14.3356 34.7465,16.6513 37.5585,16.6515 37.5589,16.6515 37.5593,16.6515 37.5597,16.6515 40.3719,16.6515 42.6524,14.3356 42.6526,11.48 42.6524,8.6242 40.3719,6.3084 37.5597,6.3084 37.5593,6.3084 37.5589,6.3084 37.5584,6.3084 Z M 37.5585,8.0622 C 39.4169,8.0622 40.924,9.5927 40.9241,11.4799 40.924,13.3672 39.4169,14.8976 37.5585,14.8977 35.7001,14.8976 34.193,13.3672 34.1929,11.4799 34.193,9.5927 35.7001,8.0622 37.5585,8.0622 Z" />
</g>
</svg>