<?xml version="1.0" encoding="utf-8"?>
<!-- Created by sK1 2.0rc5 (https://sk1project.net/) -->
<svg xmlns="http://www.w3.org/2000/svg" height="22.9606299213pt" viewBox="0 0 75.1181102362 22.9606299213" width="75.1181102362pt" version="1.1" xmlns:xlink="http://www.w3.org/1999/xlink" id="a62ba2ae-727a-11ee-be24-309c23a67cc8">
<defs id="defs1">
	<radialGradient spreadMethod="pad" gradientUnits="userSpaceOnUse" cy="0.001953125" cx="-5.1015625" gradientTransform="matrix(1.0, 0.0, 0.0, -1.0, 37.5590551181, 11.48031496065)" r="10.19921875" id="gradpink">
		<stop style="stop-color:#f6bed7;stop-opacity:1.0;" offset="0.0" />
		<stop style="stop-color:#ffffff;stop-opacity:1.0;" offset="1.0" />
	</radialGradient>
</defs>
<g>
	<path style="stroke-linejoin:round;stroke:#000000;stroke-linecap:round;stroke-miterlimit:4.0;stroke-width:0.5796;fill:#e4c0d9;" d="M 75.1178,0.4822 C 75.1178,0.2176 74.9065,0.003 74.6459,0.003 L 0.4722,0.003 C 0.2116,0.003 0.0003,0.2176 0.0003,0.4822 L 0.0003,22.4785 C 0.0003,22.7431 0.2116,22.9578 0.4722,22.9578 L 74.6459,22.9578 C 74.9065,22.9578 75.1178,22.7431 75.1178,22.4785 L 75.1178,0.4822 Z" />
	<path style="stroke:#000000;stroke-width:0.0;stroke-miterlimit:4.0;fill:none;" d="M 73.0395,2.0526 L 75.1178,0.003 M 73.0395,20.9081 L 75.1178,22.9578 M 2.0546,20.9081 L 0.0003,22.9578 M 2.0546,2.0526 L 0.0003,0.003 M 73.0395,2.0526 L 73.0395,20.9081 2.0546,20.9081 2.0546,2.0526 73.0395,2.0526 Z" />
	<path style="fill-rule:evenodd;stroke:#000000;stroke-linecap:round;stroke-miterlimit:4.0;stroke-width:0.1964;fill:url(#gradpink);" d="M 37.5482,6.3088 C 34.7357,6.309 32.4557,8.6243 32.4556,11.4804 32.4557,14.3365 34.7357,16.6518 37.5482,16.6519 40.3613,16.6526 42.6421,14.337 42.6423,11.4804 L 42.662,6.3122 37.5482,6.3088 Z" />
</g>
</svg>