<?xml version="1.0" encoding="utf-8"?>
<!-- Created by sK1 2.0rc5 (https://sk1project.net/) -->
<svg xmlns="http://www.w3.org/2000/svg" height="22.9606299213pt" viewBox="0 0 75.1181102362 22.9606299213" width="75.1181102362pt" version="1.1" xmlns:xlink="http://www.w3.org/1999/xlink" id="b89958c0-727d-11ee-8fe7-309c23a67cc8">
<defs id="defs1">
	<linearGradient y2="11.4803632517" spreadMethod="pad" gradientUnits="userSpaceOnUse" x2="42.7675169943" y1="11.4803632517" x1="32.3505513871" id="gradwhite">
		<stop style="stop-color:#dad6d4;stop-opacity:0.0;" offset="0.0" />
		<stop style="stop-color:#dad6d4;stop-opacity:1.0;" offset="1.0" />
	</linearGradient>
</defs>
<g>
	<path style="stroke-linejoin:round;stroke:#000000;stroke-linecap:round;stroke-miterlimit:4.0;stroke-width:0.5796;fill:#efeef4;" d="M 75.1178,0.4822 C 75.1178,0.2176 74.9065,0.003 74.6459,0.003 L 0.4722,0.003 C 0.2116,0.003 0.0003,0.2176 0.0003,0.4822 L 0.0003,22.4785 C 0.0003,22.7431 0.2116,22.9578 0.4722,22.9578 L 74.6459,22.9578 C 74.9065,22.9578 75.1178,22.7431 75.1178,22.4785 L 75.1178,0.4822 Z" />
	<path style="stroke:#000000;stroke-width:0.0;stroke-miterlimit:4.0;fill:none;" d="M 73.0395,2.0526 L 75.1178,0.003 M 73.0395,20.9081 L 75.1178,22.9578 M 2.0546,20.9081 L 0.0003,22.9578 M 2.0546,2.0526 L 0.0003,0.003 M 73.0395,2.0526 L 73.0395,20.9081 2.0546,20.9081 2.0546,2.0526 73.0395,2.0526 Z" />
	<path style="stroke-miterlimit:4.0;stroke:#000000;stroke-width:0.1455;stroke-linecap:round;fill:url(#gradwhite);" d="M 36.4662,10.3705 L 36.4667,9.4091 36.4673,8.4476 36.4679,7.4862 36.2309,6.2834 37.5591,6.2834 38.8831,6.2834 38.6471,7.4862 38.6486,8.4476 38.6502,9.4091 38.6518,10.3705 39.5986,10.3701 40.5453,10.3696 41.4921,10.3692 42.6766,10.1274 42.6766,11.4804 42.6766,12.8335 41.4921,12.5915 40.5453,12.591 39.5986,12.5905 38.6518,12.59 38.6501,13.5515 38.6485,14.513 38.6468,15.4744 38.8829,16.6774 37.5591,16.6774 36.2369,16.6774 36.4724,15.4744 36.4703,14.513 36.4682,13.5515 36.4662,12.59 35.5194,12.5895 34.5726,12.5889 33.6258,12.5883 32.4415,12.8292 32.4415,11.4803 32.4415,10.1569 33.6259,10.3913 34.5726,10.3843 35.5194,10.3774 36.4662,10.3705 Z" />
</g>
</svg>